<!-- Generated by IcoMoon.io -->
<svg version="1.1" xmlns="http://www.w3.org/2000/svg" width="20" height="20" viewBox="0 0 20 20">
<title>arrow-right</title>
<path d="M9.411 4.756l4.411 4.411h-9.655c-0.46 0-0.833 0.373-0.833 0.833s0.373 0.833 0.833 0.833h9.655l-4.411 4.411c-0.326 0.326-0.326 0.853 0 1.178s0.853 0.326 1.178 0l5.833-5.833c0.077-0.077 0.138-0.168 0.181-0.27 0.084-0.204 0.084-0.434 0-0.638-0.041-0.098-0.101-0.19-0.181-0.27l-5.833-5.833c-0.326-0.326-0.853-0.326-1.178 0s-0.326 0.853 0 1.178z" fill="#3f51b5"></path>
</svg>
