<!-- Generated by IcoMoon.io -->
<svg version="1.1" xmlns="http://www.w3.org/2000/svg" width="20" height="20" viewBox="0 0 20 20">
<title>more-vertical</title>
<path d="M11.667 10c0-0.46-0.188-0.877-0.488-1.178s-0.718-0.488-1.178-0.488-0.877 0.188-1.178 0.488-0.488 0.718-0.488 1.178 0.188 0.877 0.488 1.178 0.718 0.488 1.178 0.488 0.877-0.188 1.178-0.488 0.488-0.718 0.488-1.178zM11.667 4.167c0-0.46-0.188-0.877-0.488-1.178s-0.718-0.488-1.178-0.488-0.877 0.188-1.178 0.488-0.488 0.718-0.488 1.178 0.188 0.877 0.488 1.178 0.718 0.488 1.178 0.488 0.877-0.188 1.178-0.488 0.488-0.718 0.488-1.178zM11.667 15.833c0-0.46-0.188-0.877-0.488-1.178s-0.718-0.488-1.178-0.488-0.877 0.188-1.178 0.488-0.488 0.718-0.488 1.178 0.188 0.878 0.488 1.178 0.718 0.488 1.178 0.488 0.877-0.188 1.178-0.488 0.488-0.718 0.488-1.178z"></path>
</svg>
