<!-- Generated by IcoMoon.io -->
<svg version="1.1" xmlns="http://www.w3.org/2000/svg" width="20" height="20" viewBox="0 0 20 20">
<title>search</title>
<path d="M12.142 12.767c-0.869 0.619-1.932 0.983-3.079 0.983-2.934 0-5.313-2.378-5.313-5.313s2.378-5.313 5.313-5.313c2.934 0 5.313 2.378 5.313 5.313 0 1.148-0.364 2.211-0.983 3.079l3.491 3.491c0.344 0.344 0.341 0.894-0 1.235l-0.015 0.015c-0.34 0.34-0.894 0.341-1.235 0l-3.491-3.491zM9.063 12.5c2.244 0 4.063-1.819 4.063-4.063s-1.819-4.063-4.063-4.063c-2.244 0-4.063 1.819-4.063 4.063s1.819 4.063 4.063 4.063v0z" fill="white"></path>
</svg>
