<!-- Generated by IcoMoon.io -->
<svg version="1.1" xmlns="http://www.w3.org/2000/svg" width="22" height="20" viewBox="0 0 22 20">
<title>vk</title>
<path d="M21.395 5.804c0.167 0.458-0.357 1.529-1.674 3.281-2.165 2.879-2.4 2.612-0.614 4.275 1.719 1.596 2.076 2.366 2.132 2.467 0 0 0.714 1.25-0.792 1.261l-2.857 0.045c-0.614 0.123-1.429-0.435-1.429-0.435-1.071-0.737-2.076-2.645-2.857-2.4 0 0-0.804 0.257-0.781 1.975 0.011 0.368-0.167 0.569-0.167 0.569s-0.201 0.212-0.592 0.246h-1.283c-2.824 0.179-5.313-2.422-5.313-2.422s-2.723-2.813-5.112-8.426c-0.156-0.368 0.011-0.547 0.011-0.547s0.167-0.212 0.636-0.212l3.058-0.022c0.29 0.045 0.491 0.201 0.491 0.201s0.179 0.123 0.268 0.357c0.502 1.25 1.15 2.388 1.15 2.388 1.116 2.299 1.875 2.69 2.31 2.455 0 0 0.569-0.346 0.446-3.125-0.045-1.004-0.324-1.462-0.324-1.462-0.257-0.346-0.737-0.446-0.949-0.48-0.167-0.022 0.112-0.424 0.48-0.603 0.547-0.268 1.518-0.279 2.667-0.268 0.904 0.011 1.161 0.067 1.507 0.145 1.060 0.257 0.703 1.239 0.703 3.605 0 0.759-0.145 1.819 0.402 2.165 0.234 0.156 0.815 0.022 2.243-2.411 0 0 0.67-1.161 1.194-2.511 0.089-0.246 0.279-0.346 0.279-0.346s0.179-0.1 0.424-0.067l3.214-0.022c0.971-0.123 1.127 0.324 1.127 0.324z" fill="#707070"></path>
</svg>
